HIERARCHY
ROOT Hips
{
  OFFSET 0.420239 99.5597 3.929
  CHANNELS 6 Xposition Yposition Zposition Zrotation Xrotation Yrotation
  JOINT LeftUpLeg
  {
    OFFSET 8.91 -6.27 -2.145
    CHANNELS 6 Xposition Yposition Zposition Zrotation Xrotation Yrotation
    JOINT LeftUpLegRoll
    {
      OFFSET 0 -22.7323 0
      CHANNELS 6 Xposition Yposition Zposition Zrotation Xrotation Yrotation
      JOINT LeftLeg
      {
        OFFSET 0 -22.1464 0
        CHANNELS 6 Xposition Yposition Zposition Zrotation Xrotation Yrotation
        JOINT LeftLegRoll
        {
          OFFSET 0 -22.0919 0
          CHANNELS 6 Xposition Yposition Zposition Zrotation Xrotation Yrotation
          JOINT LeftFoot
          {
            OFFSET 0 -18.609 0
            CHANNELS 6 Xposition Yposition Zposition Zrotation Xrotation Yrotation
            JOINT LeftToeBase
            {
              OFFSET 0 -6.26232 12.9547
              CHANNELS 6 Xposition Yposition Zposition Zrotation Xrotation Yrotation
              End Site
              {
                OFFSET 0 0 5.96686
              }
            }
          }
        }
      }
    }
  }
  JOINT RightUpLeg
  {
    OFFSET -8.91 -6.27 -2.145
    CHANNELS 6 Xposition Yposition Zposition Zrotation Xrotation Yrotation
    JOINT RightUpLegRoll
    {
      OFFSET 0 -22.7323 0
      CHANNELS 6 Xposition Yposition Zposition Zrotation Xrotation Yrotation
      JOINT RightLeg
      {
        OFFSET 0 -22.1464 0
        CHANNELS 6 Xposition Yposition Zposition Zrotation Xrotation Yrotation
        JOINT RightLegRoll
        {
          OFFSET 0 -22.0919 0
          CHANNELS 6 Xposition Yposition Zposition Zrotation Xrotation Yrotation
          JOINT RightFoot
          {
            OFFSET 0 -18.609 0
            CHANNELS 6 Xposition Yposition Zposition Zrotation Xrotation Yrotation
            JOINT RightToeBase
            {
              OFFSET 0 -6.26232 12.9547
              CHANNELS 6 Xposition Yposition Zposition Zrotation Xrotation Yrotation
              End Site
              {
                OFFSET 0 0.000942417 5.96686
              }
            }
          }
        }
      }
    }
  }
  JOINT Spine
  {
    OFFSET 0 7.43174 -2.06162
    CHANNELS 6 Xposition Yposition Zposition Zrotation Xrotation Yrotation
    JOINT Spine1
    {
      OFFSET -1.68772e-005 12.1899 -1.41951
      CHANNELS 6 Xposition Yposition Zposition Zrotation Xrotation Yrotation
      JOINT Spine2
      {
        OFFSET 0 11.8846 -1.0903
        CHANNELS 6 Xposition Yposition Zposition Zrotation Xrotation Yrotation
        JOINT Spine3
        {
          OFFSET 1.84329e-005 10.5137 1.04001
          CHANNELS 6 Xposition Yposition Zposition Zrotation Xrotation Yrotation
          JOINT LeftShoulder
          {
            OFFSET 7 4.56855 2.0674
            CHANNELS 6 Xposition Yposition Zposition Zrotation Xrotation Yrotation
            JOINT LeftArm
            {
              OFFSET 10.7073 0 0
              CHANNELS 6 Xposition Yposition Zposition Zrotation Xrotation Yrotation
              JOINT LeftArmRoll
              {
                OFFSET 15.2612 0 0
                CHANNELS 6 Xposition Yposition Zposition Zrotation Xrotation Yrotation
                JOINT LeftForeArm
                {
                  OFFSET 12.0443 0 0
                  CHANNELS 6 Xposition Yposition Zposition Zrotation Xrotation Yrotation
                  JOINT LeftForeArmRoll
                  {
                    OFFSET 16.3277 0 0
                    CHANNELS 6 Xposition Yposition Zposition Zrotation Xrotation Yrotation
                    JOINT LeftHand
                    {
                      OFFSET 10.3694 0 0
                      CHANNELS 6 Xposition Yposition Zposition Zrotation Xrotation Yrotation
                      JOINT LeftHandThumb1
                      {
                        OFFSET 4.34876 -0.798502 4.28243
                        CHANNELS 6 Xposition Yposition Zposition Zrotation Xrotation Yrotation
                        JOINT LeftHandThumb2
                        {
                          OFFSET 2.51259 -0.536099 0.707454
                          CHANNELS 6 Xposition Yposition Zposition Zrotation Xrotation Yrotation
                          JOINT LeftHandThumb3
                          {
                            OFFSET 2.54314 0 0
                            CHANNELS 6 Xposition Yposition Zposition Zrotation Xrotation Yrotation
                            JOINT LeftHandThumb4
                            {
                              OFFSET 2.66675 0 0
                              CHANNELS 6 Xposition Yposition Zposition Zrotation Xrotation Yrotation
                              End Site
                              {
                                OFFSET 0 0 0
                              }
                            }
                          }
                        }
                      }
                      JOINT LeftHandIndex1
                      {
                        OFFSET 8.82198 0.199729 3.47167
                        CHANNELS 6 Xposition Yposition Zposition Zrotation Xrotation Yrotation
                        JOINT LeftHandIndex2
                        {
                          OFFSET 4.22532 0 -0.000262656
                          CHANNELS 6 Xposition Yposition Zposition Zrotation Xrotation Yrotation
                          JOINT LeftHandIndex3
                          {
                            OFFSET 2.65394 0 -0.00016516
                            CHANNELS 6 Xposition Yposition Zposition Zrotation Xrotation Yrotation
                            JOINT LeftHandIndex4
                            {
                              OFFSET 1.95822 0 -0.00012217
                              CHANNELS 6 Xposition Yposition Zposition Zrotation Xrotation Yrotation
                              End Site
                              {
                                OFFSET 0 0 0
                              }
                            }
                          }
                        }
                      }
                      JOINT LeftHandMiddle1
                      {
                        OFFSET 8.80988 0.50089 1.30468
                        CHANNELS 6 Xposition Yposition Zposition Zrotation Xrotation Yrotation
                        JOINT LeftHandMiddle2
                        {
                          OFFSET 4.86325 0 0
                          CHANNELS 6 Xposition Yposition Zposition Zrotation Xrotation Yrotation
                          JOINT LeftHandMiddle3
                          {
                            OFFSET 2.76524 0 0
                            CHANNELS 6 Xposition Yposition Zposition Zrotation Xrotation Yrotation
                            JOINT LeftHandMiddle4
                            {
                              OFFSET 2.00563 0 0
                              CHANNELS 6 Xposition Yposition Zposition Zrotation Xrotation Yrotation
                              End Site
                              {
                                OFFSET 0 0 0
                              }
                            }
                          }
                        }
                      }
                      JOINT LeftHandRing1
                      {
                        OFFSET 8.89376 0.37992 -0.793159
                        CHANNELS 6 Xposition Yposition Zposition Zrotation Xrotation Yrotation
                        JOINT LeftHandRing2
                        {
                          OFFSET 4.53776 0 -0.000282138
                          CHANNELS 6 Xposition Yposition Zposition Zrotation Xrotation Yrotation
                          JOINT LeftHandRing3
                          {
                            OFFSET 2.30453 0 -0.000143448
                            CHANNELS 6 Xposition Yposition Zposition Zrotation Xrotation Yrotation
                            JOINT LeftHandRing4
                            {
                              OFFSET 1.92335 0 -0.00012044
                              CHANNELS 6 Xposition Yposition Zposition Zrotation Xrotation Yrotation
                              End Site
                              {
                                OFFSET 0 0 0
                              }
                            }
                          }
                        }
                      }
                      JOINT LeftHandPinky1
                      {
                        OFFSET 8.88227 -0.313027 -2.49036
                        CHANNELS 6 Xposition Yposition Zposition Zrotation Xrotation Yrotation
                        JOINT LeftHandPinky2
                        {
                          OFFSET 3.0441 0 0
                          CHANNELS 6 Xposition Yposition Zposition Zrotation Xrotation Yrotation
                          JOINT LeftHandPinky3
                          {
                            OFFSET 1.9745 0 0
                            CHANNELS 6 Xposition Yposition Zposition Zrotation Xrotation Yrotation
                            JOINT LeftHandPinky4
                            {
                              OFFSET 1.66661 0 0
                              CHANNELS 6 Xposition Yposition Zposition Zrotation Xrotation Yrotation
                              End Site
                              {
                                OFFSET 0 0 0
                              }
                            }
                          }
                        }
                      }
                    }
                  }
                }
              }
            }
          }
          JOINT RightShoulder
          {
            OFFSET -7 4.56855 2.0673
            CHANNELS 6 Xposition Yposition Zposition Zrotation Xrotation Yrotation
            JOINT RightArm
            {
              OFFSET -10.7073 0 0
              CHANNELS 6 Xposition Yposition Zposition Zrotation Xrotation Yrotation
              JOINT RightArmRoll
              {
                OFFSET -15.2612 0 0
                CHANNELS 6 Xposition Yposition Zposition Zrotation Xrotation Yrotation
                JOINT RightForeArm
                {
                  OFFSET -12.0444 0 0
                  CHANNELS 6 Xposition Yposition Zposition Zrotation Xrotation Yrotation
                  JOINT RightForeArmRoll
                  {
                    OFFSET -16.3276 0 0
                    CHANNELS 6 Xposition Yposition Zposition Zrotation Xrotation Yrotation
                    JOINT RightHand
                    {
                      OFFSET -10.3694 0 0
                      CHANNELS 6 Xposition Yposition Zposition Zrotation Xrotation Yrotation
                      JOINT RightHandThumb1
                      {
                        OFFSET -4.34838 -0.798501 4.28282
                        CHANNELS 6 Xposition Yposition Zposition Zrotation Xrotation Yrotation
                        JOINT RightHandThumb2
                        {
                          OFFSET -2.51253 -0.536099 0.707679
                          CHANNELS 6 Xposition Yposition Zposition Zrotation Xrotation Yrotation
                          JOINT RightHandThumb3
                          {
                            OFFSET -2.54159 0 0.0888232
                            CHANNELS 6 Xposition Yposition Zposition Zrotation Xrotation Yrotation
                            JOINT RightHandThumb4
                            {
                              OFFSET -2.66512 0 0.0931403
                              CHANNELS 6 Xposition Yposition Zposition Zrotation Xrotation Yrotation
                              End Site
                              {
                                OFFSET 0 0 0
                              }
                            }
                          }
                        }
                      }
                      JOINT RightHandIndex1
                      {
                        OFFSET -8.82167 0.199732 3.47246
                        CHANNELS 6 Xposition Yposition Zposition Zrotation Xrotation Yrotation
                        JOINT RightHandIndex2
                        {
                          OFFSET -4.22532 0 0.0001146
                          CHANNELS 6 Xposition Yposition Zposition Zrotation Xrotation Yrotation
                          JOINT RightHandIndex3
                          {
                            OFFSET -2.65394 0 7.19601e-005
                            CHANNELS 6 Xposition Yposition Zposition Zrotation Xrotation Yrotation
                            JOINT RightHandIndex4
                            {
                              OFFSET -1.95822 0 5.30956e-005
                              CHANNELS 6 Xposition Yposition Zposition Zrotation Xrotation Yrotation
                              End Site
                              {
                                OFFSET 0 0 0
                              }
                            }
                          }
                        }
                      }
                      JOINT RightHandMiddle1
                      {
                        OFFSET -8.80976 0.500893 1.30547
                        CHANNELS 6 Xposition Yposition Zposition Zrotation Xrotation Yrotation
                        JOINT RightHandMiddle2
                        {
                          OFFSET -4.86325 0 0.000131881
                          CHANNELS 6 Xposition Yposition Zposition Zrotation Xrotation Yrotation
                          JOINT RightHandMiddle3
                          {
                            OFFSET -2.76524 0 7.49854e-005
                            CHANNELS 6 Xposition Yposition Zposition Zrotation Xrotation Yrotation
                            JOINT RightHandMiddle4
                            {
                              OFFSET -2.00563 0 5.43888e-005
                              CHANNELS 6 Xposition Yposition Zposition Zrotation Xrotation Yrotation
                              End Site
                              {
                                OFFSET 0 0 0
                              }
                            }
                          }
                        }
                      }
                      JOINT RightHandRing1
                      {
                        OFFSET -8.89383 0.379922 -0.792364
                        CHANNELS 6 Xposition Yposition Zposition Zrotation Xrotation Yrotation
                        JOINT RightHandRing2
                        {
                          OFFSET -4.53776 0 0.000123049
                          CHANNELS 6 Xposition Yposition Zposition Zrotation Xrotation Yrotation
                          JOINT RightHandRing3
                          {
                            OFFSET -2.30453 0 6.24859e-005
                            CHANNELS 6 Xposition Yposition Zposition Zrotation Xrotation Yrotation
                            JOINT RightHandRing4
                            {
                              OFFSET -1.92335 0 5.21537e-005
                              CHANNELS 6 Xposition Yposition Zposition Zrotation Xrotation Yrotation
                              End Site
                              {
                                OFFSET 0 0 0
                              }
                            }
                          }
                        }
                      }
                      JOINT RightHandPinky1
                      {
                        OFFSET -8.8825 -0.313025 -2.48956
                        CHANNELS 6 Xposition Yposition Zposition Zrotation Xrotation Yrotation
                        JOINT RightHandPinky2
                        {
                          OFFSET -3.0478 0 8.26466e-005
                          CHANNELS 6 Xposition Yposition Zposition Zrotation Xrotation Yrotation
                          JOINT RightHandPinky3
                          {
                            OFFSET -1.9769 0 5.36145e-005
                            CHANNELS 6 Xposition Yposition Zposition Zrotation Xrotation Yrotation
                            JOINT RightHandPinky4
                            {
                              OFFSET -1.66864 0 4.5245e-005
                              CHANNELS 6 Xposition Yposition Zposition Zrotation Xrotation Yrotation
                              End Site
                              {
                                OFFSET 0 0 0
                              }
                            }
                          }
                        }
                      }
                    }
                  }
                }
              }
            }
          }
          JOINT Neck
          {
            OFFSET 0 11.5156 1.94702
            CHANNELS 6 Xposition Yposition Zposition Zrotation Xrotation Yrotation
            JOINT Head
            {
              OFFSET -1.26215e-005 11.0733 1.65432
              CHANNELS 6 Xposition Yposition Zposition Zrotation Xrotation Yrotation
              End Site
              {
                OFFSET 0 17.7047 0
              }
            }
          }
        }
      }
    }
  }
}
MOTION
Frames:	2
Frame Time:	0.0333333
6.2686 99.5008 102.776 4.79583 15.5626 3.07984 8.91 -6.27 -2.145 -9.05138 -43.7152 -7.94551 -8.88178e-015 -22.7323 -4.71169e-007 9.75229e-019 8.27161e-017 -1.35098 -1.24345e-014 -22.1464 5.17666e-008 -5.86977e-009 22.3531 -1.58827 -8.88178e-015 -22.0919 1.36431e-008 3.53359e-018 1.57422e-016 -2.57176 -1.42109e-014 -18.609 1.69696e-008 -4.12563 -11.1017 -0.401119 5.32907e-015 -6.26232 12.9547 -3.74215e-007 -1.08517e-007 -7.08753e-016 -8.91 -6.27 -2.145 -5.16931 7.81811 -6.99771 -2.71633e-006 -22.7323 -4.51374e-007 2.42241e-017 4.11566e-016 -6.7369 -4.24549e-013 -22.1464 1.4554e-008 -4.79883e-007 33.1374 4.58785 9.19562e-007 -22.0919 4.09714e-008 2.51587e-017 -4.19402e-016 6.86577 -3.606e-013 -18.609 -7.98564e-010 3.38015 -9.06969 0.263655 -6.4416e-011 -6.26232 12.9547 0.00291266 8.83853e-008 -4.49311e-012 2.32301e-006 7.43174 -2.06162 -0.910165 0.44966 3.50047 -1.68772e-005 12.1899 -1.41951 -2.19675 0.768877 5.44149 -3.87879e-006 11.8846 -1.0903 -2.18788 0.798215 5.44137 1.84329e-005 10.5137 1.04001 -2.17605 0.826467 5.44238 7 4.56855 2.0674 0.000626034 0 10.3167 10.7073 -5.08749e-012 -5.32907e-015 -44.1329 8.12573 29.2693 15.2612 3.95062e-012 1.16365e-008 -0 42.8858 0 12.0443 -1.25056e-012 2.87898e-009 4.52967 -0.134415 -91.6962 16.3277 2.84217e-012 -1.18649e-008 -0 6.60424 0 10.3694 3.12639e-013 2.29894e-008 -3.49117 -0.0325152 1.06689 4.34876 -0.798502 4.28243 0.000223847 6.7711e-005 0.00031712 2.51259 -0.536099 0.707454 -9.83015 -0.341591 1.97062 2.54314 9.9476e-013 9.34198e-006 0.000468615 0 0 2.66675 -1.27898e-012 -8.21025e-006 -0 0 0 8.82198 0.199729 3.47167 -0.00029724 -1.03799e-005 -2.69246e-011 4.22532 4.83737e-011 -0.000262656 -0.000645732 0 0 2.65394 2.98712e-011 -0.00016516 -2.40026e-006 0 0 1.95822 2.2311e-011 -0.00012217 -0 0 0 8.80988 0.50089 1.30468 9.93669e-006 3.46997e-007 1.99644 4.86325 1.10845e-012 6.11217e-012 -2.79697e-005 0 0 2.76524 3.69482e-013 -1.91784e-007 -7.64487e-006 0 0 2.00563 -8.52651e-013 -1.13863e-006 -0 0 0 8.89376 0.37992 -0.793159 -2.64236e-005 -9.22734e-007 1.99644 4.53776 8.2423e-013 -0.000282138 -3.80537e-011 0 0 2.30453 0 -0.000143448 5.67445e-005 0 0 1.92335 -4.26326e-013 -0.00012044 -0 0 0 8.88227 -0.313027 -2.49036 0.000746907 2.60826e-005 2 3.0441 -2.04636e-012 1.33227e-015 -4.51779e-006 0 0 1.9745 2.84217e-013 -1.43329e-007 6.02174e-005 0 0 1.66661 1.64846e-012 7.91347e-007 -0 0 0 -7 4.56855 2.0673 9.21944 -6.24921e-016 -4.54789 -10.7073 5.20117e-012 2.04281e-014 52.4979 -6.33793 41.5068 -15.2612 -6.33804e-012 1.86659e-008 2.91346e-016 2.42909 2.91346e-016 -12.0444 -8.46967e-012 -7.98782e-009 -3.39216 -2.95051 130.971 -16.3276 -1.11982e-011 -2.36264e-008 -7.14143e-006 6.78864 -2.72791e-006 -10.3694 -8.52651e-014 1.64166e-008 -10.4361 1.14678 -12.5077 -4.34838 -0.798501 4.28282 0.000323672 -2.9728e-005 0.000141467 -2.51253 -0.536099 0.707679 10.4896 -0.364257 -1.96656 -2.54159 2.76827e-011 0.0888232 0.000199292 0 -0 -2.66512 1.86731e-011 0.0931403 0 0 -0 -8.82167 0.199732 3.47246 -1.7699e-006 6.18061e-008 1.19271e-015 -4.22532 2.47269e-012 0.0001146 0.00064866 0 -0 -2.65394 1.39266e-012 7.19601e-005 3.41513e-006 0 -0 -1.95822 1.36424e-012 5.30956e-005 0 0 -0 -8.80976 0.500893 1.30547 -1.19613e-005 4.17699e-007 4.37326e-014 -4.86325 -1.3074e-012 0.000131881 0.000100029 0 -0 -2.76524 1.76215e-012 7.49854e-005 1.16389e-005 0 -0 -2.00563 0 5.43888e-005 0 0 -0 -8.89383 0.379922 -0.792364 -1.60892e-005 5.61847e-007 7.91163e-014 -4.53776 4.09273e-012 0.000123049 3.64733e-005 0 -0 -2.30453 4.12115e-012 6.24859e-005 6.4473e-006 0 -0 -1.92335 7.38964e-013 5.21537e-005 0 0 -0 -8.8825 -0.313025 -2.48956 0.00122212 -4.26773e-005 4.55154e-010 -3.0478 -6.65921e-011 8.26466e-005 3.39943e-005 0 -0 -1.9769 -3.85683e-011 5.36145e-005 -2.11298e-005 0 -0 -1.66864 -3.54419e-011 4.5245e-005 0 0 -0 2.32301e-006 11.5156 1.94702 -4.03372 3.33085 -10.3156 -1.26215e-005 11.0733 1.65432 5.17423 -7.59639 -12.5783 
6.86345 97.9034 111.964 3.96905 14.0901 1.84179 8.91 -6.27 -2.145 -5.42982 -38.9415 -5.02345 -8.88178e-015 -22.7323 -4.71169e-007 9.2623e-019 8.06116e-017 -1.3166 -1.24345e-014 -22.1464 5.17666e-008 3.40656e-009 9.74257 -1.51861 -8.88178e-015 -22.0919 1.36431e-008 3.35735e-018 1.53448e-016 -2.50679 -1.42109e-014 -18.609 1.69696e-008 -8.03794 -12.7472 -0.899301 5.32907e-015 -6.26232 12.9547 -3.74215e-007 -1.08517e-007 -7.08753e-016 -8.91 -6.27 -2.145 -6.17454 9.4062 -7.56944 -2.71633e-006 -22.7323 -4.51374e-007 2.55632e-017 4.22748e-016 -6.92082 -4.24549e-013 -22.1464 1.4554e-008 -1.07987e-006 50.2788 6.3896 9.19562e-007 -22.0919 4.09714e-008 4.68856e-017 -5.71651e-016 9.37758 -3.606e-013 -18.609 -7.98564e-010 2.7806 -9.76556 0.23306 -6.4416e-011 -6.26232 12.9547 0.00291266 8.83853e-008 -4.49311e-012 2.32301e-006 7.43174 -2.06162 -0.600178 0.483539 3.62718 -1.68772e-005 12.1899 -1.41951 -2.10431 0.895203 5.5792 -3.87879e-006 11.8846 -1.0903 -2.0911 0.941718 5.57723 1.84329e-005 10.5137 1.04001 -2.073 0.986589 5.57686 7 4.56855 2.0674 -1.69152 0 10.524 10.7073 -5.08749e-012 -5.32907e-015 -44.1184 7.19161 26.9711 15.2612 3.95062e-012 1.16365e-008 -0 40.7118 0 12.0443 -1.25056e-012 2.87898e-009 5.48596 -0.392535 -94.0802 16.3277 2.84217e-012 -1.18649e-008 -0 8.04168 0 10.3694 3.12639e-013 2.29894e-008 -4.98022 -0.0651116 1.49715 4.34876 -0.798502 4.28243 0.000223847 6.7711e-005 0.00031712 2.51259 -0.536099 0.707454 -9.83015 -0.341591 1.97062 2.54314 9.9476e-013 9.34198e-006 0.000468615 0 0 2.66675 -1.27898e-012 -8.21025e-006 -0 0 0 8.82198 0.199729 3.47167 -0.00029724 -1.03799e-005 -2.69246e-011 4.22532 4.83737e-011 -0.000262656 -0.000645732 0 0 2.65394 2.98712e-011 -0.00016516 -2.40026e-006 0 0 1.95822 2.2311e-011 -0.00012217 -0 0 0 8.80988 0.50089 1.30468 9.93669e-006 3.46997e-007 1.99644 4.86325 1.10845e-012 6.11217e-012 -2.79697e-005 0 0 2.76524 3.69482e-013 -1.91784e-007 -7.64487e-006 0 0 2.00563 -8.52651e-013 -1.13863e-006 -0 0 0 8.89376 0.37992 -0.793159 -2.64236e-005 -9.22734e-007 1.99644 4.53776 8.2423e-013 -0.000282138 -3.80537e-011 0 0 2.30453 0 -0.000143448 5.67445e-005 0 0 1.92335 -4.26326e-013 -0.00012044 -0 0 0 8.88227 -0.313027 -2.49036 0.000746907 2.60826e-005 2 3.0441 -2.04636e-012 1.33227e-015 -4.51779e-006 0 0 1.9745 2.84217e-013 -1.43329e-007 6.02174e-005 0 0 1.66661 1.64846e-012 7.91347e-007 -0 0 0 -7 4.56855 2.0673 10.9933 -5.10676e-016 -3.21016 -10.7073 5.20117e-012 2.04281e-014 51.3721 -4.69052 37.6213 -15.2612 -6.33804e-012 1.86659e-008 7.19685e-016 6.18832 7.19685e-016 -12.0444 -8.46967e-012 -7.98782e-009 -3.68711 -3.19107 130.821 -16.3276 -1.11982e-011 -2.36264e-008 -7.11462e-006 7.34707 -2.7312e-006 -10.3694 -8.52651e-014 1.64166e-008 -9.41177 1.05831 -12.8031 -4.34838 -0.798501 4.28282 0.000323672 -2.9728e-005 0.000141467 -2.51253 -0.536099 0.707679 10.4896 -0.364257 -1.96656 -2.54159 2.76827e-011 0.0888232 0.000199292 0 -0 -2.66512 1.86731e-011 0.0931403 0 0 -0 -8.82167 0.199732 3.47246 -1.7699e-006 6.18061e-008 1.19271e-015 -4.22532 2.47269e-012 0.0001146 0.00064866 0 -0 -2.65394 1.39266e-012 7.19601e-005 3.41513e-006 0 -0 -1.95822 1.36424e-012 5.30956e-005 0 0 -0 -8.80976 0.500893 1.30547 -1.19613e-005 4.17699e-007 4.37326e-014 -4.86325 -1.3074e-012 0.000131881 0.000100029 0 -0 -2.76524 1.76215e-012 7.49854e-005 1.16389e-005 0 -0 -2.00563 0 5.43888e-005 0 0 -0 -8.89383 0.379922 -0.792364 -1.60892e-005 5.61847e-007 7.91163e-014 -4.53776 4.09273e-012 0.000123049 3.64733e-005 0 -0 -2.30453 4.12115e-012 6.24859e-005 6.4473e-006 0 -0 -1.92335 7.38964e-013 5.21537e-005 0 0 -0 -8.8825 -0.313025 -2.48956 0.00122212 -4.26773e-005 4.55154e-010 -3.0478 -6.65921e-011 8.26466e-005 3.39943e-005 0 -0 -1.9769 -3.85683e-011 5.36145e-005 -2.11298e-005 0 -0 -1.66864 -3.54419e-011 4.5245e-005 0 0 -0 2.32301e-006 11.5156 1.94702 -5.3529 4.25708 -9.51656 -1.26215e-005 11.0733 1.65432 6.68396 -6.51305 -12.6628 
